# xmcd
#
# Track frame offsets:
#	150
#	19365
#	41314
#	64452
#	86829
#	109650
#	134521
#	155370
#	177547
#	200060
#
# Disc length: 2969 seconds
#
# Revision: 1
# Processed by: cddbd v1.5.2PL0 Copyright (c) Steve Scherf et al.
# Submitted via: EZCDAudioConverter 8.0.2.1
#
DISCID=910b970a
DTITLE=Trúc Lam, Trúc Linh - Con Đường Màu Xanh
DYEAR=2010
DGENRE=Contemporary Pop
TTITLE0=Lệ đá
TTITLE1=Cơn mưa phùn
TTITLE2=Sang ngang
TTITLE3=Như đã dấu yêu
TTITLE4=Bài tình ca cho em
TTITLE5=Kiếp đam mê
TTITLE6=Con đường màu xanh
TTITLE7=Thành phố buồn
TTITLE8=Xin còn gọi tên nhau
TTITLE9=Phút cuối
EXTD=
EXTT0=
EXTT1=
EXTT2=
EXTT3=
EXTT4=
EXTT5=
EXTT6=
EXTT7=
EXTT8=
EXTT9=
PLAYORDER=
